<?xml version="1.0" encoding="UTF-8" standalone="no"?>
<svg
   height="128"
   width="128"
   version="1.1"
   id="svg63"
   sodipodi:docname="icon.svg"
   xmlns:inkscape="http://www.inkscape.org/namespaces/inkscape"
   xmlns:sodipodi="http://sodipodi.sourceforge.net/DTD/sodipodi-0.dtd"
   xmlns="http://www.w3.org/2000/svg"
   xmlns:svg="http://www.w3.org/2000/svg">
  <defs
     id="defs67">
    <inkscape:perspective
       sodipodi:type="inkscape:persp3d"
       inkscape:vp_x="0 : 64 : 1"
       inkscape:vp_y="0 : 1000 : 0"
       inkscape:vp_z="128 : 64 : 1"
       inkscape:persp3d-origin="64 : 42.666667 : 1" />
  </defs>
  <sodipodi:namedview
     id="namedview65"
     pagecolor="#ffffff"
     bordercolor="#000000"
     borderopacity="0.25"
     inkscape:pageshadow="2"
     inkscape:pageopacity="0.0"
     inkscape:pagecheckerboard="0"
     inkscape:deskcolor="#d1d1d1"
     showgrid="false" />
  <g
     transform="translate(32 32)"
     id="g43">
    <path
       d="m-16-32c-8.86 0-16 7.13-16 15.99v95.98c0 8.86 7.13 15.99 16 15.99h96c8.86 0 16-7.13 16-15.99v-95.98c0-8.85-7.14-15.99-16-15.99z"
       fill="#363d52"
       id="path39" />
    <path
       d="m-16-32c-8.86 0-16 7.13-16 15.99v95.98c0 8.86 7.13 15.99 16 15.99h96c8.86 0 16-7.13 16-15.99v-95.98c0-8.85-7.14-15.99-16-15.99zm0 4h96c6.64 0 12 5.35 12 11.99v95.98c0 6.64-5.35 11.99-12 11.99h-96c-6.64 0-12-5.35-12-11.99v-95.98c0-6.64 5.36-11.99 12-11.99z"
       fill-opacity=".4"
       id="path41" />
  </g>
  <rect
     style="fill:#502d16;image-rendering:auto"
     id="rect279"
     width="44.501228"
     height="36.009827"
     x="20.285013"
     y="24.530712" />
</svg>
